<svg width="25" height="24" viewBox="0 0 25 24" fill="none" xmlns="http://www.w3.org/2000/svg">
<path d="M16.7531 15.76V6.25C16.7531 5.71957 16.5424 5.21086 16.1673 4.83579C15.7923 4.46071 15.2835 4.25 14.7531 4.25H4.75311C4.22268 4.25 3.71397 4.46071 3.3389 4.83579C2.96383 5.21086 2.75311 5.71957 2.75311 6.25V15.25C2.75311 15.5152 2.85847 15.7696 3.04601 15.9571C3.23354 16.1446 3.4879 16.25 3.75311 16.25H4.46311C4.65804 15.8049 4.97845 15.4263 5.38515 15.1604C5.79185 14.8945 6.26722 14.7529 6.75311 14.7529C7.23901 14.7529 7.71437 14.8945 8.12107 15.1604C8.52777 15.4263 8.84818 15.8049 9.04311 16.25H16.4631C16.5361 16.074 16.6331 15.909 16.7531 15.76ZM16.7531 15.76C17.013 15.4075 17.3613 15.1298 17.7627 14.9548C18.1642 14.7799 18.6048 14.714 19.0399 14.7637C19.475 14.8134 19.8893 14.9769 20.241 15.2379C20.5928 15.4989 20.8694 15.848 21.0431 16.25H22.7531V13.36C22.7535 12.6343 22.5565 11.9223 22.1831 11.3L20.9531 9.25L20.0431 7.74C19.9546 7.59072 19.8288 7.46705 19.678 7.38114C19.5272 7.29522 19.3567 7.25003 19.1831 7.25H16.7531V15.76Z" stroke="black" stroke-opacity="0.5" stroke-width="1.5" stroke-linecap="round" stroke-linejoin="round"/>
<path d="M11.7531 11.25H6.75311M11.7531 8.25H6.75311M9.25311 17.25C9.25355 17.6219 9.17101 17.9892 9.0115 18.3252C8.85199 18.6611 8.61954 18.9573 8.33108 19.192C8.04262 19.4268 7.70542 19.5942 7.34405 19.6821C6.98269 19.77 6.60626 19.7762 6.24221 19.7002C5.87815 19.6242 5.53564 19.4679 5.23963 19.2428C4.94362 19.0176 4.70158 18.7293 4.53113 18.3987C4.36068 18.0682 4.26613 17.7038 4.25436 17.332C4.2426 16.9603 4.31391 16.5907 4.46311 16.25C4.69332 15.7244 5.09733 15.2939 5.60734 15.031C6.11735 14.768 6.70231 14.6884 7.26402 14.8057C7.82573 14.923 8.33001 15.2299 8.69219 15.675C9.05438 16.1201 9.25244 16.6762 9.25311 17.25ZM21.2531 17.25C21.2535 17.6219 21.171 17.9892 21.0115 18.3252C20.852 18.6611 20.6195 18.9573 20.3311 19.192C20.0426 19.4268 19.7054 19.5942 19.3441 19.6821C18.9827 19.77 18.6063 19.7762 18.2422 19.7002C17.8782 19.6242 17.5356 19.4679 17.2396 19.2428C16.9436 19.0176 16.7016 18.7293 16.5311 18.3987C16.3607 18.0682 16.2661 17.7038 16.2544 17.332C16.2426 16.9603 16.3139 16.5907 16.4631 16.25C16.5361 16.074 16.6331 15.909 16.7531 15.76C17.013 15.4075 17.3612 15.1298 17.7627 14.9548C18.1642 14.7799 18.6048 14.714 19.0399 14.7637C19.475 14.8134 19.8893 14.9769 20.241 15.2379C20.5928 15.4989 20.8694 15.848 21.0431 16.25C21.1831 16.565 21.2551 16.906 21.2531 17.25Z" stroke="black" stroke-opacity="0.5" stroke-width="1.5" stroke-linecap="round" stroke-linejoin="round"/>
</svg>
