<svg width="25" height="24" viewBox="0 0 25 24" fill="none" xmlns="http://www.w3.org/2000/svg">
<g clip-path="url(#clip0_1848_2558)">
<path d="M13.967 0.0989725C15.1115 0.229472 16.217 0.541472 16.982 1.42497C17.7395 2.29647 17.966 3.49197 17.966 4.87497C17.966 5.57547 17.8355 6.55347 17.7305 7.33047L17.708 7.49997H19.841C20.7455 7.49997 21.602 7.62747 22.343 7.99947C23.105 8.38047 23.7095 9.01797 24.0485 9.79947C24.728 11.2965 24.7055 13.47 24.3305 16.2735L24.2705 16.7325C24.113 17.9175 23.978 18.942 23.801 19.782C23.6045 20.727 23.3285 21.5955 22.799 22.29C21.671 23.7705 19.775 24 17.216 24C14.444 24 12.365 23.5005 10.634 23.0205C10.3865 22.953 10.1495 22.8855 9.9215 22.821C8.9345 22.542 8.1215 22.311 7.334 22.1985C7.16077 22.7228 6.82658 23.1792 6.37899 23.5026C5.93141 23.826 5.39322 24.0001 4.841 24H3.341C2.64481 24 1.97713 23.7234 1.48485 23.2311C0.992565 22.7388 0.716003 22.0712 0.716003 21.375L0.716003 10.125C0.716003 8.67597 1.892 7.49997 3.341 7.49997H4.841C5.30095 7.49992 5.75284 7.62073 6.15141 7.85029C6.54998 8.07984 6.88124 8.4101 7.112 8.80797C7.499 8.65047 7.997 8.40597 8.489 8.04597C9.4955 7.31097 10.466 6.11847 10.466 4.12497V3.37497C10.466 1.57197 11.957 -0.130528 13.967 0.0989725ZM7.466 19.95C8.5235 20.082 9.551 20.376 10.574 20.667L11.2355 20.8545C12.8795 21.312 14.7365 21.7515 17.216 21.7515C19.907 21.7515 20.636 21.417 21.008 20.928C21.2285 20.6385 21.422 20.1705 21.599 19.323C21.7565 18.57 21.881 17.637 22.0415 16.428L22.1015 15.978C22.4765 13.155 22.385 11.5785 21.9995 10.7325C21.8738 10.4196 21.638 10.1635 21.3365 10.0125C21.0245 9.85647 20.5565 9.75147 19.841 9.75147H17.216C16.187 9.75147 15.2735 8.88597 15.407 7.74747C15.4415 7.45947 15.482 7.16247 15.521 6.86847C15.6185 6.13647 15.716 5.41347 15.716 4.87647C15.716 3.66297 15.5 3.15147 15.284 2.90247C15.0785 2.66547 14.681 2.44647 13.712 2.33547C13.2515 2.28147 12.716 2.68947 12.716 3.37497V4.12497C12.716 7.00797 11.249 8.81697 9.8165 9.86247C9.09915 10.3843 8.30658 10.794 7.466 11.0775V19.95ZM4.841 9.74997H3.341C3.24155 9.74997 3.14616 9.78948 3.07584 9.85981C3.00551 9.93013 2.966 10.0255 2.966 10.125V21.375C2.966 21.582 3.134 21.75 3.341 21.75H4.841C4.94046 21.75 5.03584 21.7105 5.10617 21.6401C5.17649 21.5698 5.216 21.4744 5.216 21.375V10.125C5.216 10.0255 5.17649 9.93013 5.10617 9.85981C5.03584 9.78948 4.94046 9.74997 4.841 9.74997Z" fill="#F4F4F4"/>
</g>
<defs>
<clipPath id="clip0_1848_2558">
<rect width="24" height="24" fill="white" transform="translate(0.716003)"/>
</clipPath>
</defs>
</svg>
