<svg width="390" height="844" viewBox="0 0 390 844" fill="none" xmlns="http://www.w3.org/2000/svg">
<rect width="390" height="844" fill="white"/>
<rect x="93.251" y="423.141" width="31.6268" height="32.5852" fill="#AFDE71"/>
<rect x="269.595" y="388" width="28.7517" height="40.8913" fill="#F4E166"/>
<path d="M79.029 443.584V408.733H86.3973V437.509H101.338V443.584H79.029ZM117.891 444.094C115.248 444.094 112.962 443.533 111.033 442.41C109.116 441.275 107.636 439.698 106.592 437.679C105.548 435.648 105.027 433.294 105.027 430.617C105.027 427.917 105.548 425.557 106.592 423.538C107.636 421.507 109.116 419.931 111.033 418.807C112.962 417.673 115.248 417.106 117.891 417.106C120.535 417.106 122.815 417.673 124.732 418.807C126.661 419.931 128.147 421.507 129.19 423.538C130.234 425.557 130.756 427.917 130.756 430.617C130.756 433.294 130.234 435.648 129.19 437.679C128.147 439.698 126.661 441.275 124.732 442.41C122.815 443.533 120.535 444.094 117.891 444.094ZM117.925 438.479C119.128 438.479 120.132 438.139 120.937 437.458C121.743 436.766 122.35 435.824 122.758 434.633C123.178 433.442 123.388 432.086 123.388 430.566C123.388 429.046 123.178 427.69 122.758 426.499C122.35 425.308 121.743 424.366 120.937 423.674C120.132 422.982 119.128 422.636 117.925 422.636C116.711 422.636 115.69 422.982 114.862 423.674C114.045 424.366 113.427 425.308 113.007 426.499C112.599 427.69 112.395 429.046 112.395 430.566C112.395 432.086 112.599 433.442 113.007 434.633C113.427 435.824 114.045 436.766 114.862 437.458C115.69 438.139 116.711 438.479 117.925 438.479ZM158.995 417.446L149.857 443.584H141.689L132.551 417.446H140.209L145.637 436.148H145.909L151.321 417.446H158.995ZM173.775 444.094C171.086 444.094 168.772 443.55 166.832 442.461C164.903 441.36 163.417 439.806 162.373 437.798C161.33 435.779 160.808 433.391 160.808 430.634C160.808 427.945 161.33 425.586 162.373 423.555C163.417 421.524 164.886 419.942 166.781 418.807C168.687 417.673 170.921 417.106 173.485 417.106C175.21 417.106 176.815 417.384 178.301 417.94C179.799 418.484 181.103 419.307 182.215 420.407C183.338 421.507 184.212 422.891 184.836 424.559C185.46 426.215 185.771 428.155 185.771 430.379V432.37H163.701V427.877H178.948C178.948 426.834 178.721 425.909 178.267 425.104C177.813 424.298 177.184 423.669 176.378 423.215C175.584 422.75 174.659 422.517 173.604 422.517C172.504 422.517 171.528 422.772 170.678 423.283C169.838 423.782 169.18 424.457 168.704 425.308C168.227 426.147 167.983 427.083 167.972 428.116V432.387C167.972 433.68 168.21 434.798 168.687 435.739C169.174 436.681 169.861 437.407 170.746 437.917C171.63 438.428 172.68 438.683 173.894 438.683C174.699 438.683 175.437 438.57 176.106 438.343C176.775 438.116 177.348 437.776 177.825 437.322C178.301 436.868 178.664 436.312 178.914 435.654L185.618 436.097C185.278 437.707 184.58 439.114 183.525 440.317C182.482 441.508 181.132 442.438 179.475 443.108C177.83 443.765 175.93 444.094 173.775 444.094ZM212.25 424.899L205.613 425.308C205.5 424.741 205.256 424.23 204.881 423.776C204.507 423.311 204.014 422.943 203.401 422.67C202.8 422.387 202.079 422.245 201.24 422.245C200.117 422.245 199.169 422.483 198.398 422.96C197.627 423.425 197.241 424.049 197.241 424.831C197.241 425.455 197.49 425.983 197.99 426.414C198.489 426.845 199.345 427.191 200.559 427.452L205.29 428.405C207.831 428.927 209.726 429.766 210.973 430.923C212.221 432.081 212.845 433.601 212.845 435.484C212.845 437.197 212.34 438.7 211.331 439.993C210.332 441.287 208.96 442.296 207.213 443.022C205.477 443.737 203.475 444.094 201.206 444.094C197.746 444.094 194.989 443.374 192.936 441.933C190.894 440.481 189.697 438.507 189.345 436.011L196.475 435.637C196.691 436.692 197.212 437.498 198.041 438.054C198.869 438.598 199.93 438.87 201.223 438.87C202.493 438.87 203.514 438.626 204.286 438.139C205.069 437.639 205.466 436.998 205.477 436.216C205.466 435.558 205.188 435.019 204.643 434.599C204.099 434.168 203.259 433.839 202.125 433.612L197.598 432.71C195.046 432.2 193.145 431.315 191.898 430.056C190.661 428.796 190.043 427.191 190.043 425.24C190.043 423.561 190.496 422.114 191.404 420.901C192.323 419.687 193.611 418.751 195.267 418.093C196.935 417.435 198.886 417.106 201.121 417.106C204.422 417.106 207.02 417.803 208.914 419.199C210.82 420.594 211.932 422.494 212.25 424.899ZM251.746 419.999C251.508 419.17 251.173 418.439 250.742 417.803C250.311 417.157 249.783 416.612 249.159 416.17C248.547 415.716 247.843 415.37 247.049 415.132C246.266 414.894 245.399 414.774 244.446 414.774C242.665 414.774 241.099 415.217 239.749 416.102C238.41 416.987 237.367 418.274 236.618 419.965C235.869 421.644 235.495 423.697 235.495 426.125C235.495 428.552 235.863 430.617 236.601 432.319C237.338 434.021 238.382 435.319 239.732 436.216C241.082 437.101 242.676 437.543 244.514 437.543C246.181 437.543 247.605 437.248 248.785 436.658C249.976 436.057 250.884 435.212 251.508 434.123C252.143 433.034 252.461 431.746 252.461 430.26L253.958 430.481H244.973V424.934H259.557V429.324C259.557 432.387 258.91 435.019 257.617 437.22C256.323 439.409 254.542 441.1 252.273 442.291C250.004 443.471 247.407 444.06 244.48 444.06C241.212 444.06 238.342 443.34 235.869 441.899C233.396 440.447 231.467 438.388 230.083 435.722C228.711 433.045 228.024 429.868 228.024 426.193C228.024 423.368 228.433 420.849 229.25 418.637C230.078 416.414 231.235 414.531 232.721 412.988C234.207 411.445 235.937 410.271 237.911 409.465C239.885 408.66 242.024 408.257 244.326 408.257C246.3 408.257 248.138 408.546 249.84 409.125C251.542 409.692 253.05 410.498 254.366 411.541C255.694 412.585 256.777 413.827 257.617 415.268C258.456 416.697 258.995 418.274 259.233 419.999H251.746ZM266.593 443.584V417.446H273.842V443.584H266.593ZM270.235 414.077C269.157 414.077 268.232 413.719 267.461 413.005C266.701 412.279 266.321 411.411 266.321 410.401C266.321 409.403 266.701 408.546 267.461 407.832C268.232 407.106 269.157 406.742 270.235 406.742C271.312 406.742 272.231 407.106 272.991 407.832C273.763 408.546 274.149 409.403 274.149 410.401C274.149 411.411 273.763 412.279 272.991 413.005C272.231 413.719 271.312 414.077 270.235 414.077ZM293.705 417.446V422.891H277.573V417.446H293.705ZM281.266 443.584V415.557C281.266 413.663 281.635 412.091 282.372 410.844C283.121 409.596 284.142 408.66 285.435 408.036C286.728 407.412 288.197 407.1 289.842 407.1C290.954 407.1 291.969 407.185 292.888 407.355C293.819 407.525 294.511 407.678 294.964 407.815L293.671 413.26C293.387 413.169 293.036 413.084 292.616 413.005C292.208 412.925 291.788 412.886 291.357 412.886C290.29 412.886 289.547 413.135 289.128 413.634C288.708 414.122 288.498 414.808 288.498 415.693V443.584H281.266ZM312.037 417.446V422.891H296.296V417.446H312.037ZM299.869 411.184H307.119V435.552C307.119 436.221 307.221 436.743 307.425 437.118C307.629 437.481 307.913 437.736 308.276 437.883C308.65 438.031 309.081 438.105 309.569 438.105C309.909 438.105 310.25 438.076 310.59 438.019C310.93 437.951 311.191 437.9 311.373 437.866L312.513 443.261C312.15 443.374 311.639 443.505 310.981 443.652C310.324 443.811 309.524 443.907 308.582 443.941C306.835 444.009 305.304 443.777 303.988 443.244C302.683 442.71 301.668 441.882 300.942 440.759C300.215 439.636 299.858 438.218 299.869 436.505V411.184Z" fill="black"/>
<circle cx="136.379" cy="411.64" r="3.83356" fill="#FB4E4D"/>
<circle cx="155.227" cy="411.64" r="3.83356" fill="#FB4E4D"/>
</svg>
